Encoded by Team Ratzz {  Encoder - Ratzz }



General
Complete name                    : Brazil 1985 Director's Cut BRRip 720p  x264 Ratzz.mp4
Format                           : MP4
Format profile                   : Base Media
Codec ID                         : isom
File size                        : 1.20 GiB
Duration                         : 2h 23mn
Overall bit rate                 : 1 199 Kbps

Video
ID                               : 1
Format                           : AVC
Format/Info                      : Advanced Video Codec
Format profile                   : High@L4.0
Format settings, CABAC           : Yes
Format settings, ReFrames        : 2 frames
Format settings, GOP             : M=4, N=59
Codec ID                         : avc1
Codec ID/Info                    : Advanced Video Coding
Duration                         : 2h 23mn
Bit rate mode                    : Variable
Bit rate                         : 1 133 Kbps
Maximum bit rate                 : 25.0 Mbps
Width                            : 1 280 pixels
Height                           : 692 pixels
Display aspect ratio             : 1.850
Frame rate mode                  : Constant
Frame rate                       : 23.976 fps
Color space                      : YUV
Chroma subsampling               : 4:2:0
Bit depth                        : 8 bits
Scan type                        : Progressive
Bits/(Pixel*Frame)               : 0.053
Stream size                      : 1.13 GiB (94%)
Title                            : Brazil 1985 Director's Cut BluRay 720p  x264 Ratzz

Audio
ID                               : 2
Format                           : AAC
Format/Info                      : Advanced Audio Codec
Format profile                   : HE-AAC / LC
Codec ID                         : 40
Duration                         : 2h 23mn
Bit rate mode                    : Variable
Bit rate                         : 64.0 Kbps
Maximum bit rate                 : 70.9 Kbps
Channel(s)                       : 2 channels
Channel positions                : Front: L R
Sampling rate                    : 48.0 KHz / 24.0 KHz
Compression mode                 : Lossy
Stream size                      : 65.6 MiB (5%)
Language                         : English



Screen Shots :


<img src="http://img813.imageshack.us/img813/6264/scutbrrip720px264ratzz0.jpg" alt="Image Hosted by ImageShack.us"/>By <a target="_new" href="http://profile.imageshack.us/user/afterratzz">afterratzz</a> at 2012-03-03



<img src="http://img205.imageshack.us/img205/6264/scutbrrip720px264ratzz0.jpg" alt="Image Hosted by ImageShack.us"/>By <a target="_new" href="http://profile.imageshack.us/user/afterratzz">afterratzz</a> at 2012-03-03


<img src="http://img194.imageshack.us/img194/6264/scutbrrip720px264ratzz0.jpg" alt="Image Hosted by ImageShack.us"/>By <a target="_new" href="http://profile.imageshack.us/user/afterratzz">afterratzz</a> at 2012-03-03


Sample included.



pls seed and provide after download.
thank you.